<svg width="301" height="346" viewBox="0 0 301 346" fill="none" xmlns="http://www.w3.org/2000/svg">
<path d="M9 251.858V92.2015L150.985 10.3956L292 92.1842V251.875L150.985 335.544L9 251.858Z" fill="white" stroke="#0E3F71" stroke-width="18"/>
<circle cx="138.617" cy="146.135" r="10.135" fill="#FBB79F"/>
<path d="M126 171.369C126 164.401 131.649 158.752 138.617 158.752V158.752C145.585 158.752 151.234 164.401 151.234 171.369V186.49C151.234 187.163 150.688 187.709 150.015 187.709H127.219C126.546 187.709 126 187.163 126 186.49V171.369Z" fill="#FBB79F"/>
<circle cx="95.6171" cy="146.426" r="10.135" fill="#FBB79F"/>
<path d="M83 171.66C83 164.692 88.6488 159.043 95.617 159.043V159.043C102.585 159.043 108.234 164.692 108.234 171.66V186.781C108.234 187.454 107.688 188 107.015 188H84.2192C83.5459 188 83 187.454 83 186.781V171.66Z" fill="#FBB79F"/>
<circle cx="190.617" cy="146.135" r="10.135" fill="#FBB79F"/>
<path d="M178 171.369C178 164.401 183.649 158.752 190.617 158.752V158.752C197.585 158.752 203.234 164.401 203.234 171.369V186.49C203.234 187.163 202.688 187.709 202.015 187.709H179.219C178.546 187.709 178 187.163 178 186.49V171.369Z" fill="#FBB79F"/>
<circle cx="222.396" cy="159.564" r="11.564" fill="#90CAF9"/>
<path d="M208 188.356C208 180.405 214.445 173.96 222.396 173.96V173.96C230.347 173.96 236.792 180.405 236.792 188.356V205.609C236.792 206.377 236.169 207 235.401 207H209.391C208.623 207 208 206.377 208 205.609V188.356Z" fill="#90CAF9"/>
<circle cx="116.396" cy="159.564" r="11.564" fill="#90CAF9"/>
<path d="M102 188.356C102 180.405 108.445 173.96 116.396 173.96V173.96C124.347 173.96 130.792 180.405 130.792 188.356V205.609C130.792 206.377 130.169 207 129.401 207H103.391C102.623 207 102 206.377 102 205.609V188.356Z" fill="#90CAF9"/>
<circle cx="79.396" cy="159.564" r="11.564" fill="#90CAF9"/>
<path d="M65 188.356C65 180.405 71.4453 173.96 79.396 173.96V173.96C87.3467 173.96 93.792 180.405 93.792 188.356V205.609C93.792 206.377 93.1692 207 92.4008 207H66.3912C65.6228 207 65 206.377 65 205.609V188.356Z" fill="#90CAF9"/>
<circle cx="169.5" cy="140.5" r="24.5" fill="#1976D2"/>
<path d="M139 201.5C139 184.655 152.655 171 169.5 171V171C186.345 171 200 184.655 200 201.5V239C200 240.105 199.105 241 198 241H141C139.895 241 139 240.105 139 239V201.5Z" fill="#1976D2"/>
<rect x="105.781" y="201.735" width="20.1279" height="55.7687" rx="4" transform="rotate(30 105.781 201.735)" fill="#0E3F71"/>
<circle cx="149" cy="156" r="61.5" stroke="#0E3F71" stroke-width="17"/>
</svg>
